<?xml version="1.0" encoding="UTF-8"?>
<svg id="Capa_2" data-name="Capa 2" xmlns="http://www.w3.org/2000/svg" viewBox="0 0 1073.16 314.9">
  <defs>
    <style>
      .cls-1 {
        fill: none;
      }

      .cls-2 {
        fill: #e6007e;
      }
    </style>
  </defs>
  <g id="Capa_1-2" data-name="Capa 1">
    <g>
      <g>
        <path d="M378.42,88.63h-22.04v56.92h-15.75v-56.92h-22.04v-14.48h59.84v14.48Z"/>
        <path d="M397.84,145.55h-15.75v-71.41h15.75v71.41Z"/>
        <path d="M420.93,117.09v28.46h-15.75v-71.41h34.01c14.28,0,23.51,8.87,23.51,21.52s-9.24,21.42-23.51,21.42h-18.27ZM420.93,102.6h16.69c3.99,0,8.61-1.22,8.61-6.94s-4.62-7.04-8.61-7.04h-16.69v13.98Z"/>
        <path d="M464.81,109.85c0-21.42,15.22-36.42,37.06-36.42s36.95,15,36.95,36.42-15.22,36.42-36.95,36.42-37.06-15-37.06-36.42ZM480.97,109.85c0,13.47,7.98,21.93,20.89,21.93s20.79-8.47,20.79-21.93-7.87-21.93-20.79-21.93-20.89,8.47-20.89,21.93Z"/>
        <path d="M610.72,102.6v42.95h-15.64v-4.9c-4.83,3.77-10.81,5.61-18.06,5.61-23.31,0-33.91-17.44-33.91-36.42,0-21.42,14.91-36.42,36.01-36.42,13.12,0,24.14,5.92,30.02,16.22l-13.75,7.34c-3.99-7.45-11.13-9.08-16.27-9.08-12.39,0-19.95,8.47-19.95,21.93s7.35,21.93,19.32,21.93c9.97,0,16.59-5.3,16.59-14.69h-18.79v-14.48h34.43Z"/>
        <path d="M678.22,145.55h-15.85s-.84-1.12-1.05-4.18l-1.26-12.65c-.84-9.69-6.51-11.63-12.49-11.63h-14.17v28.46h-15.75v-71.41h35.48c14.28,0,23.51,8.26,23.51,19.99,0,7.24-3.78,12.85-9.87,16.12,5.25,3.37,8.08,8.98,8.92,17.14l1.15,11.93c.42,4.18,1.36,6.22,1.36,6.22ZM660.16,95.67c0-5.81-4.62-7.04-8.5-7.04h-18.27v13.98h18.27c3.88,0,8.5-1.22,8.5-6.94Z"/>
        <path d="M727.34,130.96h-26.03l-4.72,14.59h-17.32l24.88-71.41h20.26l24.98,71.41h-17.32l-4.72-14.59ZM722.51,116.48l-8.19-26.11-8.29,26.11h16.48Z"/>
        <path d="M768.81,88.63v15.4h35.48v14.49h-35.48v27.03h-15.75v-71.41h53.43v14.48h-37.69Z"/>
        <path d="M827.07,145.55h-15.75v-71.41h15.75v71.41Z"/>
        <path d="M878.82,130.96h-26.03l-4.72,14.59h-17.32l24.88-71.41h20.26l24.98,71.41h-17.32l-4.72-14.59ZM873.99,116.48l-8.19-26.11-8.29,26.11h16.48Z"/>
        <path d="M366.66,234.75h-26.03l-4.72,14.59h-17.32l24.88-71.41h20.26l24.98,71.41h-17.32l-4.72-14.59ZM361.83,220.27l-8.19-26.11-8.29,26.11h16.48Z"/>
        <path d="M454.31,228.94c0,12.04-9.24,20.4-23.51,20.4h-38.42v-71.41h35.38c14.28,0,23.51,8.06,23.51,19.69,0,6.22-2.83,11.22-7.77,14.49,6.72,3.26,10.81,9.18,10.81,16.83ZM408.12,205.68h18.16c3.88,0,8.61-1.12,8.61-6.63s-4.72-6.63-8.61-6.63h-18.16v13.26ZM437.83,227.51c0-4.9-2.83-7.34-8.61-7.34h-21.1v14.59h21.1c5.77,0,8.61-2.45,8.61-7.24Z"/>
        <path d="M475.31,249.34h-15.75v-71.41h15.75v71.41Z"/>
        <path d="M498.4,192.42v13.98h36.53v14.49h-36.53v13.87h38.74v14.59h-54.48v-71.41h54.48v14.49h-38.74Z"/>
        <path d="M603.58,249.34h-15.85s-.84-1.12-1.05-4.18l-1.26-12.65c-.84-9.69-6.51-11.63-12.49-11.63h-14.17v28.46h-15.75v-71.41h35.48c14.28,0,23.51,8.26,23.51,19.99,0,7.24-3.78,12.85-9.87,16.12,5.25,3.37,8.08,8.98,8.92,17.14l1.15,11.94c.42,4.18,1.36,6.22,1.36,6.22ZM585.53,199.46c0-5.81-4.62-7.04-8.5-7.04h-18.27v13.98h18.27c3.88,0,8.5-1.22,8.5-6.94Z"/>
        <path d="M664.47,192.42h-22.04v56.92h-15.75v-56.92h-22.04v-14.49h59.84v14.49Z"/>
        <path d="M699.95,234.75h-26.03l-4.72,14.59h-17.32l24.88-71.41h20.26l24.98,71.41h-17.32l-4.72-14.59ZM695.12,220.27l-8.19-26.11-8.29,26.11h16.48Z"/>
      </g>
      <path d="M819.95,56.98h16.82l-11.2,11.82h-13.7l8.09-11.82Z"/>
    </g>
    <polyline class="cls-1" points="0 0 1073.16 0 1073.16 314.9"/>
    <g>
      <g>
        <path class="cls-1" d="M139.09,174.31c-3.8,0-7.55.28-11.24.84-3.69.56-7.04,1.68-10.06,3.35s-5.53,3.91-7.55,6.71c-2.01,2.8-3.02,6.32-3.02,10.56,0,4.02.72,7.55,2.18,10.56,1.45,3.02,3.46,5.76,6.04,8.22,2.57,2.46,5.75,4.42,9.56,5.87,3.8,1.46,8.05,2.18,12.74,2.18h.34c7.03,0,13.33-.44,18.93-1.29v-46.6l-17.93-.4Z"/>
        <path class="cls-1" d="M163.41,220.09c7.04-1.68,12.8-3.69,17.27-6.04,4.47-2.35,7.93-4.92,10.4-7.71,2.46-2.79,4.19-5.48,5.2-8.05,1.01-2.57,1.68-4.86,2.01-6.88.34-2.01.5-3.35.5-4.02v-11.74l-35.95-.81v45.37c.19-.04.38-.08.57-.12Z"/>
        <path class="cls-1" d="M198.79,143.79v-7.71c0-7.6-1.34-13.86-4.02-18.78-2.68-4.92-6.04-8.83-10.06-11.74-4.02-2.9-8.38-4.86-13.08-5.87-3.08-.66-6-1.08-8.79-1.31v45.41h35.95Z"/>
      </g>
      <g>
        <path class="cls-1" d="M180.68,214.05c4.47-2.35,7.93-4.92,10.4-7.71,2.46-2.79,4.19-5.48,5.2-8.05,1.01-2.57,1.68-4.86,2.01-6.88.34-2.01.5-3.35.5-4.02v-11.74l-35.95-.81v45.37c.19-.04.38-.08.57-.12,7.04-1.68,12.8-3.69,17.27-6.04Z"/>
        <path class="cls-1" d="M198.79,136.07c0-7.6-1.34-13.86-4.02-18.78-2.68-4.92-6.04-8.83-10.06-11.74-4.02-2.9-8.38-4.86-13.08-5.87-3.08-.66-6-1.08-8.79-1.31v45.41h35.95v-7.71Z"/>
        <path class="cls-1" d="M127.86,175.15c-3.69.56-7.04,1.68-10.06,3.35s-5.53,3.91-7.55,6.71c-2.01,2.8-3.02,6.32-3.02,10.56,0,4.02.72,7.55,2.18,10.56,1.45,3.02,3.46,5.76,6.04,8.22,2.57,2.46,5.75,4.42,9.56,5.87,3.8,1.46,8.05,2.18,12.74,2.18h.34c7.03,0,13.33-.44,18.93-1.29v-46.6l-17.93-.4c-3.8,0-7.55.28-11.24.84Z"/>
        <path class="cls-2" d="M145.54,240.79c0-4.28,3.48-7.75,7.76-7.75h3.72v-11.73c-5.6.86-11.91,1.29-18.93,1.29h-.34c-4.7,0-8.95-.72-12.74-2.18-3.8-1.45-6.99-3.41-9.56-5.87-2.57-2.46-4.59-5.2-6.04-8.22-1.46-3.02-2.18-6.54-2.18-10.56,0-4.24,1.01-7.77,3.02-10.56,2.01-2.79,4.53-5.03,7.55-6.71s6.37-2.79,10.06-3.35c3.69-.56,7.43-.84,11.24-.84l17.93.4v-1.57c-6.54-1.35-11.48-7.15-11.48-14.09s4.94-12.74,11.48-14.09v-1.17h-17.93c-16.55,0-29.91,1.73-40.08,5.2-10.18,3.47-17.94,8.05-23.31,13.75-5.37,5.7-8.89,11.91-10.56,18.61-1.68,6.71-2.52,13.31-2.52,19.79,0,11.18,2.52,20.29,7.55,27.33,5.03,7.04,11.29,12.47,18.78,16.27,7.49,3.8,15.76,6.37,24.82,7.71s17.49,2.01,25.32,2.01h.34c2.08-.05,4.12-.16,6.12-.32,0-.03,0-.06,0-.09v-13.27Z"/>
        <path class="cls-2" d="M153.3,78.02c-4.28,0-7.76-3.47-7.76-7.75v-3.72h-16.28c-3.3.74-6.47,1.6-9.46,2.62-10.85,3.69-19.68,8.61-26.5,14.76-6.82,6.15-11.8,13.36-14.92,21.63-3.13,8.27-4.7,17.1-4.7,26.5h44.27c0-7.38,1.39-13.25,4.19-17.61,2.79-4.36,6.2-7.77,10.23-10.23,4.02-2.46,8.38-4.08,13.08-4.86,4.11-.68,7.96-1.05,11.55-1.14v-20.19h-3.72Z"/>
        <path class="cls-2" d="M174.32,70.27c0,4.28-3.48,7.75-7.76,7.75h-3.72v20.36c2.79.23,5.71.65,8.79,1.31,4.7,1.01,9.06,2.97,13.08,5.87,4.02,2.91,7.38,6.82,10.06,11.74,2.68,4.92,4.02,11.18,4.02,18.78v7.71h-35.95v1.17c6.54,1.35,11.48,7.16,11.48,14.09s-4.94,12.74-11.48,14.09v1.7l35.95.81v11.74c0,.67-.17,2.01-.5,4.02-.34,2.01-1.01,4.31-2.01,6.88-1.01,2.57-2.74,5.26-5.2,8.05-2.46,2.8-5.93,5.37-10.4,7.71-4.48,2.35-10.23,4.36-17.27,6.04-.18.04-.38.08-.57.12v12.83h3.72c4.28,0,7.76,3.47,7.76,7.75v6.16c2.6-1.26,5.01-2.66,7.2-4.22,5.03-3.57,9.11-7.93,12.24-13.08,3.13-5.14,5.14-10.95,6.04-17.44v1.01l2.35,3.02-3.35,33.2h44.61v-104.98c0-10.06-1.34-19.96-4.02-29.68-2.68-9.73-7.33-18.39-13.92-25.99-6.6-7.6-15.32-13.69-26.16-18.28-3.79-1.6-7.92-2.92-12.38-3.96h-12.59v3.72Z"/>
        <path d="M248.03,49.25c-6.94,0-12.74,4.93-14.09,11.47h-59.62v-3.72c0-4.27-3.48-7.75-7.76-7.75h-13.26c-4.28,0-7.76,3.48-7.76,7.75v3.72h-60.27c-1.35-6.54-7.15-11.47-14.09-11.47-7.93,0-14.38,6.46-14.38,14.39s6.45,14.38,14.38,14.38c6.94,0,12.74-4.93,14.09-11.47h60.27v3.72c0,4.28,3.48,7.75,7.76,7.75h3.72v66.94c-6.54,1.35-11.48,7.16-11.48,14.09s4.94,12.74,11.48,14.09v59.9h-3.72c-4.28,0-7.76,3.47-7.76,7.75v13.27s0,.06,0,.09c.05,4.23,3.51,7.66,7.76,7.66h13.26c4.28,0,7.76-3.48,7.76-7.75v-13.27c0-4.28-3.48-7.75-7.76-7.75h-3.72v-59.9c6.54-1.35,11.48-7.16,11.48-14.09s-4.94-12.74-11.48-14.09v-66.94h3.72c4.28,0,7.76-3.47,7.76-7.75v-3.72h59.62c1.35,6.54,7.15,11.47,14.09,11.47,7.93,0,14.39-6.45,14.39-14.38s-6.46-14.39-14.39-14.39ZM71.18,72.19c-4.73,0-8.56-3.83-8.56-8.56s3.83-8.56,8.56-8.56,8.56,3.83,8.56,8.56-3.83,8.56-8.56,8.56ZM166.56,238.86c1.06,0,1.93.86,1.93,1.93v13.27c0,1.06-.86,1.93-1.93,1.93h-13.27c-1.06,0-1.93-.86-1.93-1.93v-13.27c0-1.06.86-1.93,1.93-1.93h13.27ZM168.49,159.05c0,4.73-3.83,8.56-8.56,8.56s-8.56-3.83-8.56-8.56,3.83-8.56,8.56-8.56,8.56,3.83,8.56,8.56ZM168.49,70.27c0,1.06-.86,1.93-1.93,1.93h-13.27c-1.06,0-1.93-.86-1.93-1.93v-13.27c0-1.06.86-1.93,1.93-1.93h13.27c1.06,0,1.93.86,1.93,1.93v13.27ZM248.03,72.19c-4.73,0-8.56-3.83-8.56-8.56s3.83-8.56,8.56-8.56,8.56,3.83,8.56,8.56-3.83,8.56-8.56,8.56Z"/>
      </g>
    </g>
  </g>
</svg>